<?xml version="1.0" encoding="iso-8859-1"?>
<!-- Generator: Adobe Illustrator 19.0.0, SVG Export Plug-In . SVG Version: 6.00 Build 0)  -->
<svg version="1.1" id="Layer_1" xmlns="http://www.w3.org/2000/svg" xmlns:xlink="http://www.w3.org/1999/xlink" x="0px" y="0px"
	 viewBox="0 0 512 512" style="enable-background:new 0 0 512 512;" xml:space="preserve">
<rect x="85.161" y="181.732" style="fill:#FFDB56;" width="74.673" height="144.035"/>
<rect x="126.087" y="181.732" style="fill:#FBA806;" width="33.758" height="144.035"/>
<rect x="221.218" y="217.741" style="fill:#F77935;" width="74.673" height="144.035"/>
<rect x="262.133" y="217.741" style="fill:#D9510D;" width="33.758" height="144.035"/>
<rect x="357.275" y="150.224" style="fill:#894BA2;" width="74.673" height="144.035"/>
<rect x="398.19" y="150.224" style="fill:#763794;" width="33.758" height="144.035"/>
<path d="M9.002,110.422c4.661,0,8.44-3.778,8.44-8.44V8.44c0-4.662-3.779-8.44-8.44-8.44s-8.44,3.778-8.44,8.44v93.543
	C0.563,106.643,4.341,110.422,9.002,110.422z"/>
<path d="M502.998,495.121H17.442v-359.38c0-4.662-3.779-8.44-8.44-8.44s-8.44,3.778-8.44,8.44v367.82c0,4.662,3.779,8.44,8.44,8.44
	h493.996c4.661,0,8.44-3.778,8.44-8.44S507.659,495.121,502.998,495.121z"/>
<path d="M357.275,302.693h27.927v93.966c0,4.662,3.779,8.44,8.44,8.44s8.44-3.778,8.44-8.44v-93.966h29.87
	c4.661,0,8.44-3.778,8.44-8.44v-144.03c0-4.662-3.779-8.44-8.44-8.44h-29.87v-30.951c0-4.662-3.779-8.44-8.44-8.44
	s-8.44,3.778-8.44,8.44v30.951h-27.927c-4.661,0-8.44,3.778-8.44,8.44v43.886c0,4.662,3.779,8.44,8.44,8.44s8.44-3.778,8.44-8.44
	v-35.446h57.799v127.15h-57.799v-57.946c0-4.662-3.779-8.44-8.44-8.44s-8.44,3.778-8.44,8.44v66.386
	C348.835,298.916,352.614,302.693,357.275,302.693z"/>
<path d="M221.219,370.21h27.927v26.45c0,4.662,3.779,8.44,8.44,8.44c4.661,0,8.44-3.778,8.44-8.44v-26.45h29.87
	c4.661,0,8.44-3.778,8.44-8.44v-144.03c0-4.662-3.779-8.44-8.44-8.44h-29.87v-98.467c0-4.662-3.779-8.44-8.44-8.44
	s-8.44,3.778-8.44,8.44v98.467h-27.927c-4.661,0-8.44,3.778-8.44,8.44v144.03C212.779,366.432,216.558,370.21,221.219,370.21z
	 M229.658,226.18h57.799v127.15h-57.799V226.18z"/>
<path d="M85.163,334.201h27.927v62.458c0,4.662,3.779,8.44,8.44,8.44c4.661,0,8.44-3.778,8.44-8.44v-62.458h29.87
	c4.661,0,8.44-3.778,8.44-8.44v-144.03c0-4.662-3.779-8.44-8.44-8.44h-29.87v-62.458c0-4.662-3.779-8.44-8.44-8.44
	c-4.661,0-8.44,3.778-8.44,8.44v62.458H85.163c-4.661,0-8.44,3.778-8.44,8.44v68.642c0,4.662,3.779,8.44,8.44,8.44
	c4.661,0,8.44-3.778,8.44-8.44v-60.202h57.799v127.15H93.603v-33.19c0-4.662-3.779-8.44-8.44-8.44c-4.661,0-8.44,3.778-8.44,8.44
	v41.63C76.723,330.423,80.502,334.201,85.163,334.201z"/>
<g>
</g>
<g>
</g>
<g>
</g>
<g>
</g>
<g>
</g>
<g>
</g>
<g>
</g>
<g>
</g>
<g>
</g>
<g>
</g>
<g>
</g>
<g>
</g>
<g>
</g>
<g>
</g>
<g>
</g>
</svg>
